<svg xmlns="http://www.w3.org/2000/svg" width="50" height="50" viewBox="0 0 500 500">
<g>
<path d="M 291.50 320.12 C287.57,321.40 257.59,322.03 248.00,321.03 C216.95,317.79 214.92,317.41 201.00,312.28 C189.03,307.87 186.20,306.38 181.22,301.85 C177.55,298.50 172.03,287.74 171.98,283.83 C171.95,280.61 170.59,280.20 162.50,281.00 C153.51,281.89 150.71,281.07 151.19,277.68 C151.47,275.74 152.53,275.34 160.75,274.08 C167.92,272.97 170.00,272.30 169.98,271.08 C169.95,267.80 168.40,267.09 160.57,266.80 C152.34,266.49 149.96,265.16 151.31,261.64 C151.82,260.30 153.49,260.00 160.45,260.00 C168.49,260.00 168.98,259.88 169.36,257.75 C171.02,248.42 173.24,238.25 175.14,231.31 C177.27,223.51 177.31,222.68 176.00,213.31 C172.67,189.42 175.50,179.38 185.50,179.59 C190.69,179.71 196.06,182.73 204.90,190.51 C210.25,195.22 212.54,197.37 215.23,198.17 C217.47,198.83 219.98,198.57 224.74,198.06 C225.17,198.01 225.62,197.96 226.08,197.91 C239.45,196.50 266.15,197.58 277.76,200.00 L 286.49 201.82 L 296.15 191.90 C302.62,185.24 307.35,181.29 310.49,179.90 C317.66,176.73 322.60,178.71 325.64,185.98 C327.67,190.84 328.49,207.01 327.13,215.64 C326.12,222.10 326.21,223.22 328.06,227.40 C330.83,233.66 333.00,245.61 333.00,254.59 L 333.00 262.00 L 339.88 262.00 C347.47,262.00 350.34,263.64 348.34,266.83 C347.57,268.06 345.33,268.63 339.90,269.00 C332.81,269.48 332.50,269.61 332.50,271.99 C332.50,274.33 332.95,274.55 340.00,275.52 C348.55,276.71 350.00,277.36 350.00,280.01 C350.00,283.01 347.46,283.69 339.78,282.78 C335.85,282.31 332.11,282.13 331.46,282.38 C330.81,282.63 329.74,284.98 329.08,287.61 C324.90,304.21 314.86,314.68 300.00,317.94 C296.98,318.60 293.15,319.58 291.50,320.12 ZM 259.00 314.35 C268.19,314.90 279.26,314.16 288.00,312.43 C292.12,311.62 297.35,310.59 299.60,310.15 C303.87,309.33 313.00,304.52 313.00,303.10 C313.00,302.66 314.09,301.12 315.41,299.69 C317.62,297.30 321.06,289.58 322.55,283.67 C323.15,281.28 323.03,281.24 314.33,280.53 C304.41,279.72 301.32,278.13 303.13,274.76 C304.10,272.94 305.03,272.80 314.33,273.14 C323.66,273.47 324.49,273.35 324.83,271.59 C325.19,269.79 324.68,269.72 315.19,270.30 C304.40,270.95 302.18,270.16 303.46,266.14 C303.92,264.68 305.28,264.04 308.79,263.62 C324.43,261.78 324.10,261.87 325.19,259.48 C326.92,255.69 324.65,240.67 320.95,231.46 C317.94,223.95 317.82,223.19 318.88,217.94 C321.31,205.89 319.64,186.00 316.21,186.00 C313.14,186.00 308.74,189.49 300.50,198.47 C295.60,203.81 290.62,208.31 289.22,208.66 C287.83,209.01 281.03,208.26 274.10,207.00 C262.43,204.88 259.73,204.75 237.42,205.32 C210.03,206.01 209.81,205.96 201.37,197.53 C196.19,192.34 188.32,187.00 185.86,187.00 C184.88,187.00 183.60,187.87 183.04,188.93 C181.71,191.42 181.70,202.18 183.03,209.11 C184.83,218.49 184.46,228.10 182.03,235.40 C179.62,242.65 179.39,243.68 178.19,252.32 C177.66,256.11 177.75,258.61 178.44,259.50 C179.10,260.34 182.71,261.10 188.00,261.51 C192.68,261.87 196.88,262.52 197.33,262.97 C197.79,263.41 198.02,264.83 197.83,266.13 C197.51,268.42 197.17,268.51 187.25,268.78 C179.25,269.01 177.00,269.38 177.00,270.48 C177.00,272.64 177.85,272.77 187.50,272.03 C196.72,271.33 200.00,271.98 200.00,274.51 C200.00,277.19 195.41,279.03 187.14,279.67 C178.73,280.32 177.91,280.89 179.89,284.76 C180.38,285.72 181.80,288.64 183.05,291.25 C186.74,298.98 193.10,302.55 213.00,308.05 C219.59,309.88 247.11,313.64 259.00,314.35 ZM 247.49 286.41 C244.11,288.63 237.33,289.21 232.52,287.70 C228.13,286.32 224.00,281.30 224.00,277.35 C224.00,273.83 228.44,274.19 232.00,278.00 C236.79,283.13 244.39,281.76 245.56,275.56 C245.91,273.68 246.78,271.91 247.50,271.64 C249.93,270.71 253.02,272.22 253.63,274.64 C254.40,277.71 257.66,280.00 261.26,280.00 C263.64,280.00 264.37,279.31 266.00,275.50 C268.00,270.83 270.62,269.63 272.87,272.34 C274.26,274.02 271.85,281.71 268.96,284.82 C266.04,287.94 260.59,288.61 254.83,286.54 C250.33,284.92 249.79,284.91 247.49,286.41 ZM 227.44 256.37 C226.83,258.82 226.40,259.00 221.12,259.00 C215.37,259.00 211.25,257.10 205.25,251.68 C202.15,248.89 202.43,247.34 206.25,246.11 C214.18,243.54 219.97,245.08 225.82,251.31 C227.53,253.13 227.94,254.40 227.44,256.37 ZM 296.07 256.42 C292.99,260.13 273.06,256.28 272.20,251.80 C271.28,247.01 286.95,245.33 292.69,249.61 C296.66,252.58 297.63,254.54 296.07,256.42 ZM 199.72 212.50 C196.78,212.50 195.48,213.14 193.57,215.50 C191.47,218.10 191.06,218.27 190.47,216.76 C189.57,214.44 191.79,205.42 193.65,203.88 C194.85,202.88 195.57,203.13 197.53,205.25 C198.85,206.68 200.88,208.14 202.03,208.51 C205.64,209.66 204.00,212.50 199.72,212.50 ZM 311.85 216.68 C310.33,218.51 309.69,218.36 307.05,215.55 C305.61,214.02 303.39,212.99 301.13,212.80 L 297.50 212.50 L 301.38 208.70 C306.50,203.67 308.67,204.06 311.08,210.43 C312.45,214.07 312.66,215.71 311.85,216.68 ZM 253.48 267.38 C251.56,269.30 243.98,269.58 242.20,267.80 C240.45,266.05 240.73,263.19 242.75,262.26 C243.71,261.82 246.75,261.47 249.50,261.48 C253.83,261.50 254.54,261.79 254.80,263.63 C254.97,264.79 254.38,266.48 253.48,267.38 Z" fill="rgb(8,8,8)"/>
<path d="M 291.50 320.12 C293.15,319.58 296.98,318.60 300.00,317.94 C306.26,316.56 311.67,313.91 316.14,310.06 C313.80,312.13 311.24,313.85 308.50,315.15 L 302.50 318.00 L 306.86 318.00 C311.56,318.00 313.91,316.54 321.74,308.73 C325.38,305.10 326.11,303.69 325.98,300.49 C325.93,299.23 329.40,293.42 330.64,292.70 C331.39,292.26 332.00,291.22 332.00,290.39 C332.00,289.56 332.40,289.13 332.89,289.43 C334.42,290.38 334.72,285.46 333.21,284.05 C331.98,282.90 331.87,283.05 332.43,285.10 L 333.08 287.50 L 331.69 285.13 C331.13,284.17 330.79,283.62 330.51,283.62 C330.86,282.94 331.19,282.48 331.46,282.38 C332.11,282.13 335.85,282.31 339.78,282.78 C345.22,283.43 348.08,283.27 349.29,282.06 C349.08,282.33 348.83,282.56 348.53,282.73 C347.72,283.18 344.15,283.31 340.60,283.01 C335.62,282.59 334.37,282.74 335.14,283.67 C335.70,284.34 336.86,284.61 337.74,284.27 C338.82,283.85 339.09,284.05 338.57,284.88 C338.00,285.80 339.37,286.03 344.16,285.80 L 350.50 285.50 L 350.57 278.75 C350.60,275.04 350.23,272.00 349.74,272.00 C349.26,272.00 349.56,271.29 350.43,270.43 C351.59,269.26 351.74,268.38 350.99,266.98 C350.17,265.44 349.95,265.21 348.56,266.45 C349.09,265.44 349.09,264.60 348.56,263.93 C348.70,263.77 348.66,263.28 348.36,262.50 C348.05,261.67 347.05,260.95 346.14,260.89 C345.24,260.83 342.92,260.67 341.00,260.54 C339.08,260.41 336.49,260.04 335.25,259.71 C333.68,259.30 333.00,259.55 333.00,260.56 C333.00,261.67 334.55,262.00 339.88,262.00 L 333.00 262.00 L 333.00 254.59 C333.00,245.61 330.83,233.66 328.06,227.40 C326.21,223.22 326.12,222.10 327.13,215.64 C328.49,207.01 327.67,190.84 325.64,185.98 C322.60,178.71 317.66,176.73 310.49,179.90 C307.35,181.29 302.62,185.24 296.15,191.90 L 286.49 201.82 L 277.76 200.00 C266.15,197.58 239.45,196.50 226.08,197.91 C225.62,197.96 225.17,198.01 224.74,198.06 C219.98,198.57 217.47,198.83 215.23,198.17 C214.94,198.08 214.65,197.98 214.36,197.86 C214.72,197.87 214.98,197.69 215.26,197.40 C216.38,196.28 214.79,194.00 212.89,194.00 C211.85,194.00 211.00,193.55 211.00,193.00 C211.00,192.45 210.52,192.00 209.93,192.00 C208.32,192.00 206.00,189.36 206.00,187.54 C206.00,185.94 202.16,183.84 200.75,184.68 C200.34,184.92 200.00,184.61 200.00,184.00 C200.00,183.39 199.55,183.16 199.00,183.50 C198.45,183.84 198.00,183.61 198.00,183.00 C198.00,182.39 197.55,182.16 197.00,182.50 C196.45,182.84 196.00,182.34 196.00,181.39 C196.00,180.44 195.70,179.96 195.34,180.32 C194.98,180.69 194.05,180.46 193.28,179.82 C191.52,178.36 187.00,177.82 187.00,179.07 C187.00,179.38 187.30,179.66 187.76,179.83 C187.00,179.69 186.25,179.61 185.50,179.59 C183.84,179.56 182.37,179.80 181.10,180.35 C183.42,179.24 183.53,178.14 181.36,177.31 C179.10,176.44 176.52,178.29 176.39,180.88 C176.32,182.07 175.54,183.86 174.64,184.85 C173.74,185.84 173.00,186.96 173.00,187.33 C173.00,188.91 174.78,188.06 176.14,186.18 C174.20,191.58 174.20,200.43 176.00,213.31 C177.31,222.68 177.27,223.51 175.14,231.31 C173.28,238.13 171.10,248.05 169.45,257.24 C169.12,256.96 168.20,257.03 166.36,257.33 C164.33,257.66 162.21,258.39 161.64,258.96 C161.01,259.59 161.65,259.91 163.69,259.98 C162.78,260.00 161.71,260.00 160.45,260.00 C153.49,260.00 151.82,260.30 151.31,261.64 C151.09,262.20 150.97,262.71 150.96,263.17 C150.92,263.03 150.88,262.90 150.86,262.78 C150.62,261.61 150.06,261.33 149.15,261.90 C148.05,262.58 148.14,263.14 149.62,264.87 C151.53,267.10 154.00,267.93 152.23,265.75 C152.06,265.55 151.89,265.29 151.73,265.00 C152.98,266.09 155.79,266.62 160.57,266.80 C164.11,266.93 166.36,267.15 167.78,267.65 C167.36,267.98 167.25,268.59 167.54,269.07 C167.86,269.58 167.69,270.00 167.17,270.00 C166.64,270.00 165.95,270.67 165.64,271.50 C165.29,272.42 165.61,272.86 166.80,272.97 C165.39,273.31 163.42,273.66 160.75,274.08 C152.53,275.34 151.47,275.74 151.19,277.68 C151.11,278.23 151.12,278.71 151.23,279.13 C150.68,277.59 151.31,275.73 153.00,275.29 C155.59,274.61 155.55,273.31 152.93,272.48 C151.64,272.07 151.07,271.27 151.42,270.36 C151.79,269.38 151.57,269.15 150.74,269.67 C150.06,270.10 148.86,270.46 148.09,270.47 C147.31,270.49 146.46,271.13 146.21,271.89 C145.88,272.85 146.17,273.02 147.12,272.45 C148.29,271.74 148.29,271.87 147.13,273.31 C146.05,274.64 146.01,275.31 146.96,276.46 C147.63,277.26 147.86,278.41 147.49,279.02 C147.11,279.63 147.58,280.98 148.53,282.03 C149.91,283.56 150.65,283.72 152.29,282.85 C154.12,281.87 154.16,281.67 152.66,280.83 C152.36,280.66 152.10,280.46 151.89,280.22 C152.83,281.07 154.71,281.40 157.84,281.32 C157.51,281.52 157.69,281.87 158.21,282.46 C159.69,284.14 161.00,284.43 161.00,283.07 C161.00,282.56 162.01,281.94 163.25,281.71 C164.49,281.47 163.57,281.21 161.21,281.14 C161.17,281.13 161.12,281.13 161.08,281.13 C161.53,281.09 162.01,281.05 162.50,281.00 C164.60,280.79 166.25,280.67 167.54,280.65 C167.41,280.72 167.28,280.80 167.14,280.89 C166.12,281.54 166.08,281.93 166.98,282.49 C168.70,283.55 172.13,291.99 171.35,293.24 C170.98,293.83 171.16,294.02 171.74,293.66 C172.32,293.30 173.05,293.68 173.36,294.51 C173.68,295.33 174.44,296.00 175.05,296.00 C175.67,296.00 175.93,295.44 175.64,294.75 C175.49,294.39 175.10,293.26 174.59,291.73 C176.29,295.29 178.56,299.00 180.49,301.11 C178.43,299.48 177.11,299.72 177.70,301.98 C178.40,304.65 184.58,309.45 187.30,309.43 C188.51,309.42 189.98,309.88 190.58,310.46 C191.17,311.03 193.42,311.59 195.58,311.69 L 199.50 311.88 L 195.95 310.56 C189.87,308.31 184.72,305.37 182.18,302.70 C186.55,306.54 189.74,308.13 200.61,312.14 C200.36,312.31 200.36,312.76 200.64,313.50 C200.95,314.33 202.18,314.99 203.36,314.97 C205.46,314.94 205.46,314.91 203.56,313.47 C203.31,313.28 203.08,313.12 202.87,312.97 C215.17,317.45 218.39,317.94 248.00,321.03 C257.59,322.03 287.57,321.40 291.50,320.12 ZM 259.00 314.35 C253.64,314.03 245.11,313.09 236.75,311.99 C236.85,312.00 236.96,312.00 237.06,312.00 C238.19,312.00 238.84,311.55 238.50,311.00 C238.16,310.45 237.23,310.00 236.44,310.00 C235.65,310.00 235.00,310.45 235.00,311.00 C235.00,311.42 235.54,311.78 236.29,311.93 C232.71,311.45 229.18,310.95 225.94,310.45 C226.07,310.20 226.23,309.85 226.38,309.45 C226.71,308.59 226.57,308.15 226.06,308.46 C225.56,308.77 223.96,308.48 222.50,307.82 C220.34,306.83 219.69,306.87 218.96,308.06 C218.61,308.61 218.58,309.00 218.97,309.30 C216.37,308.84 214.29,308.41 213.00,308.05 C207.71,306.59 203.37,305.26 199.79,303.96 C200.03,303.66 199.51,302.74 198.19,301.22 C196.96,299.81 195.94,299.42 194.97,300.02 C193.64,300.84 193.54,301.10 195.44,302.22 C194.48,301.79 193.60,301.37 192.77,300.93 C192.92,300.86 193.00,300.71 193.00,300.46 C193.00,299.34 185.64,292.00 184.59,292.08 C183.98,292.12 184.05,292.38 184.76,292.66 C185.45,292.94 185.72,293.65 185.35,294.24 C185.22,294.46 185.31,294.84 185.57,295.32 C184.58,294.09 183.76,292.75 183.05,291.25 C181.80,288.64 180.38,285.72 179.89,284.76 C179.63,284.25 179.41,283.79 179.26,283.38 C179.73,284.33 180.73,284.14 181.33,282.58 C181.63,281.80 181.23,280.92 180.44,280.61 L 180.43 280.61 C181.68,280.17 183.82,279.92 187.14,279.67 C195.41,279.03 200.00,277.19 200.00,274.51 C200.00,272.57 198.07,271.73 193.00,271.76 C196.36,271.53 198.00,271.03 198.00,270.26 C198.00,268.37 189.24,268.62 187.29,270.57 C186.22,271.63 186.19,271.97 188.56,271.95 C188.22,271.98 187.86,272.00 187.50,272.03 C183.71,272.32 181.28,272.48 179.72,272.43 C179.90,272.09 180.00,271.61 180.00,271.00 C180.00,270.26 179.71,269.63 179.27,269.28 C180.84,269.04 183.37,268.89 187.25,268.78 C197.17,268.51 197.51,268.42 197.83,266.13 C198.02,264.83 197.79,263.41 197.33,262.97 C197.19,262.82 196.65,262.66 195.83,262.49 C196.89,262.64 197.66,262.78 197.75,262.84 C197.89,262.93 198.00,262.18 198.00,261.17 C198.00,259.86 197.36,259.41 195.75,259.58 C194.51,259.72 192.94,259.87 192.25,259.92 C190.01,260.07 190.79,261.40 193.00,262.03 C191.52,261.83 189.80,261.65 188.00,261.51 C182.71,261.10 179.10,260.34 178.44,259.50 C177.75,258.61 177.66,256.11 178.19,252.32 C178.30,251.48 178.41,250.72 178.51,250.02 L 178.51 250.02 C178.85,250.56 179.34,251.00 179.62,251.00 C179.89,251.00 179.84,250.55 179.50,250.00 C179.16,249.45 179.52,249.00 180.30,249.00 C181.24,249.00 181.63,248.11 181.44,246.37 C181.28,244.92 181.52,242.75 181.99,241.54 C182.45,240.32 182.46,238.75 182.02,238.03 C181.75,237.59 181.48,237.54 181.21,237.89 C181.46,237.14 181.73,236.32 182.03,235.40 C184.46,228.10 184.83,218.49 183.03,209.11 C182.86,208.21 182.71,207.24 182.58,206.23 C182.61,206.27 182.64,206.30 182.67,206.33 C184.01,207.68 185.00,206.94 185.00,204.61 C185.00,203.29 184.32,201.95 183.50,201.64 C182.83,201.38 182.40,201.48 182.19,202.01 C182.00,199.02 181.99,196.01 182.16,193.59 C182.36,193.76 182.81,193.25 183.67,191.97 C184.59,190.61 185.42,189.37 185.53,189.22 C185.64,189.07 186.89,189.39 188.33,189.93 C189.76,190.48 191.16,190.56 191.43,190.11 C191.55,189.93 191.46,189.69 191.23,189.43 C193.10,190.61 195.20,192.13 197.21,193.79 C195.17,192.20 193.34,191.00 192.74,191.00 C192.20,191.00 192.30,191.65 192.96,192.46 C193.63,193.26 193.88,194.38 193.53,194.96 C193.17,195.53 193.29,196.00 193.80,196.00 C194.30,196.00 194.66,197.44 194.58,199.21 C194.51,201.04 194.95,202.43 196.17,203.92 C195.14,203.09 194.53,203.15 193.65,203.88 C191.79,205.42 189.57,214.44 190.47,216.76 C190.56,216.97 190.63,217.15 190.71,217.29 C190.63,217.14 190.54,216.96 190.45,216.74 C190.08,215.76 190.00,214.11 190.28,213.05 C191.19,209.57 188.38,210.07 187.10,213.61 C186.42,215.49 185.45,216.78 184.96,216.48 C184.46,216.17 184.13,218.38 184.21,221.41 C184.36,227.35 185.04,227.74 186.99,223.02 C187.75,221.19 188.98,220.00 190.10,220.00 C191.12,220.00 192.71,218.85 193.62,217.45 C194.54,216.05 195.89,215.13 196.62,215.41 C197.34,215.68 198.22,215.45 198.57,214.89 C198.92,214.32 199.82,214.10 200.57,214.39 C201.33,214.68 202.58,214.28 203.35,213.51 C204.13,212.73 204.98,212.32 205.26,212.59 C205.53,212.86 206.01,212.42 206.32,211.62 C206.63,210.81 206.23,209.61 205.44,208.95 C204.65,208.29 204.00,207.30 204.00,206.75 C204.00,205.80 206.10,205.94 214.50,207.46 C216.15,207.76 218.85,207.59 220.50,207.09 C223.26,206.25 223.09,206.16 218.49,206.09 C215.98,206.04 213.32,205.46 210.87,204.48 C215.38,205.86 222.21,205.70 237.42,205.32 C248.40,205.04 254.63,204.93 259.52,205.14 C257.57,205.25 257.33,205.50 258.50,206.00 C261.20,207.16 263.20,207.16 265.00,206.00 C265.23,205.85 265.37,205.72 265.40,205.61 C268.01,205.92 270.67,206.37 274.10,207.00 C281.03,208.26 287.83,209.01 289.22,208.66 C290.23,208.40 293.15,205.95 296.55,202.58 C291.04,208.35 289.87,209.01 286.78,209.00 C283.89,209.00 283.19,209.33 283.64,210.50 C284.24,212.08 291.00,212.69 291.00,211.17 C291.00,210.71 292.11,209.74 293.47,209.02 C294.82,208.29 295.65,207.20 295.31,206.60 C294.96,205.99 295.04,205.82 295.47,206.21 C295.91,206.61 297.22,206.47 298.38,205.91 C300.32,204.98 300.35,205.01 298.75,206.31 C297.79,207.08 297.00,208.48 297.00,209.42 C297.00,210.37 296.53,210.83 295.93,210.45 C295.34,210.09 295.45,210.74 296.17,211.91 C297.64,214.26 299.87,215.27 304.81,215.85 C305.53,215.93 305.80,216.52 305.40,217.15 C304.93,217.92 305.13,218.04 306.02,217.49 C306.97,216.90 307.17,217.12 306.73,218.27 C306.33,219.30 306.72,220.01 307.81,220.24 C310.79,220.89 312.47,220.54 313.72,219.00 C315.38,216.95 315.30,214.33 313.55,213.66 C312.64,213.31 312.29,213.58 312.60,214.39 C312.82,214.97 312.53,215.87 311.94,216.57 C312.53,215.73 312.45,214.42 311.61,211.92 C311.73,211.97 311.86,212.00 312.00,212.00 C312.55,212.00 313.00,211.55 313.00,211.00 C313.00,210.45 312.55,210.00 312.00,210.00 C311.62,210.00 311.29,210.22 311.12,210.53 C311.10,210.50 311.09,210.46 311.08,210.43 C309.60,206.53 308.22,204.87 306.19,205.33 C307.98,204.71 309.25,205.24 309.71,207.00 C310.48,209.94 312.01,209.43 311.97,206.25 C311.93,202.65 309.74,199.66 308.24,201.16 C307.64,201.76 305.33,202.33 303.12,202.43 C299.84,202.57 299.30,202.35 300.21,201.25 C301.12,200.15 301.49,200.14 302.23,201.20 C302.81,202.04 302.89,201.66 302.46,200.12 C302.04,198.65 302.16,197.98 302.78,198.36 C303.33,198.70 303.71,198.20 303.64,197.24 C303.55,196.11 304.11,195.60 305.23,195.79 C306.47,196.00 306.79,195.62 306.35,194.47 C305.96,193.46 304.62,194.27 300.99,197.94 C303.63,195.08 305.86,192.81 307.78,191.04 C307.61,192.16 310.23,191.97 312.08,190.37 C313.43,189.20 313.93,189.28 315.58,190.94 C317.72,193.10 318.94,193.52 319.09,192.27 C319.94,197.08 320.27,203.94 319.84,210.29 C319.71,209.52 319.45,209.00 319.08,209.00 C317.77,209.00 317.33,210.87 317.83,214.26 C318.13,216.36 318.50,216.82 319.11,215.85 C319.18,215.75 319.24,215.63 319.30,215.51 C319.18,216.34 319.04,217.16 318.88,217.94 C317.82,223.19 317.94,223.95 320.95,231.46 C324.65,240.67 326.92,255.69 325.19,259.48 C324.10,261.87 324.43,261.78 308.79,263.62 C306.32,263.91 304.91,264.32 304.14,265.04 C304.27,264.89 304.41,264.73 304.57,264.57 C306.55,262.59 305.12,262.52 302.35,264.47 C299.68,266.33 298.66,269.93 300.58,270.67 C301.36,270.97 302.00,271.90 302.00,272.73 C302.00,273.94 301.71,274.00 300.55,273.04 C299.30,272.00 299.22,272.29 300.03,275.10 C300.54,276.89 301.53,278.72 302.23,279.16 C304.49,280.60 305.33,280.05 303.70,278.23 C305.29,279.36 308.72,280.07 314.33,280.53 C316.67,280.72 318.39,280.86 319.65,281.02 C318.28,281.09 318.28,281.40 319.21,282.46 C320.42,283.83 321.84,284.23 322.55,283.65 L 322.55 283.67 C322.15,285.25 321.61,286.97 320.99,288.67 C321.00,288.62 321.00,288.58 321.00,288.53 C321.00,288.24 320.10,288.00 319.00,288.00 C317.86,288.00 317.00,288.67 317.00,289.56 C317.00,290.42 316.66,290.91 316.25,290.66 C315.84,290.40 315.46,291.95 315.42,294.10 C315.38,296.24 315.74,298.00 316.23,298.00 C316.72,298.00 316.84,297.55 316.50,297.00 C316.16,296.45 316.38,296.00 316.99,296.00 C317.41,296.00 318.25,294.86 319.06,293.44 C317.79,296.22 316.46,298.56 315.41,299.69 C314.09,301.12 313.00,302.66 313.00,303.10 C313.00,303.67 311.55,304.77 309.54,305.94 C310.93,305.10 311.80,304.47 311.68,304.35 C311.50,304.17 309.37,304.60 306.93,305.30 C304.09,306.13 302.39,307.23 302.16,308.41 C302.06,308.91 302.06,309.25 302.23,309.39 C301.26,309.74 300.35,310.01 299.60,310.15 C297.94,310.48 294.65,311.12 291.38,311.77 C291.75,311.50 292.00,311.03 292.00,310.50 C292.00,309.67 291.40,309.00 290.67,309.00 C289.93,309.00 289.33,309.67 289.33,310.50 C289.33,311.21 289.78,311.81 290.37,311.96 C289.56,312.12 288.76,312.28 288.00,312.43 C279.26,314.16 268.19,314.90 259.00,314.35 ZM 247.49 286.41 C249.79,284.91 250.33,284.92 254.83,286.54 C260.59,288.61 266.04,287.94 268.96,284.82 C270.36,283.31 271.65,280.72 272.45,278.27 C272.42,278.78 272.89,278.60 274.01,277.99 C276.60,276.61 276.54,273.58 273.89,271.11 C271.60,268.98 266.91,268.76 266.25,270.76 C265.96,271.62 266.70,271.81 268.73,271.40 C268.80,271.39 268.88,271.37 268.96,271.36 C267.91,272.03 266.89,273.42 266.00,275.50 C265.39,276.92 264.91,277.90 264.42,278.58 C264.27,277.96 262.72,277.30 260.00,277.00 C255.73,276.53 255.51,276.35 255.68,273.50 C255.77,271.85 255.65,269.47 255.40,268.21 C254.99,266.14 254.79,266.07 253.40,267.46 C252.41,268.45 250.22,268.95 247.97,268.97 C250.27,268.86 252.55,268.31 253.48,267.38 C254.38,266.48 254.97,264.79 254.80,263.63 C254.54,261.79 253.83,261.50 249.50,261.48 C246.75,261.47 243.71,261.82 242.75,262.26 C240.92,263.11 240.52,265.54 241.77,267.29 C240.23,265.91 240.12,265.99 240.27,267.89 C240.35,269.05 240.67,270.00 240.97,270.00 C241.27,270.00 242.07,270.89 242.75,271.97 C243.79,273.64 243.64,274.25 241.75,276.02 C239.28,278.32 236.27,278.07 233.03,275.30 C230.78,273.37 227.00,272.56 227.00,274.01 C227.00,274.55 227.49,275.00 228.10,275.00 C228.70,275.00 230.46,276.35 232.00,278.00 C228.44,274.19 224.00,273.83 224.00,277.35 C224.00,281.30 228.13,286.32 232.52,287.70 C237.33,289.21 244.11,288.63 247.49,286.41 ZM 202.00 245.11 C202.00,246.91 202.40,247.12 204.75,246.53 C205.16,246.42 205.53,246.33 205.85,246.24 C202.41,247.45 202.26,248.99 205.25,251.68 C211.25,257.10 215.37,259.00 221.12,259.00 C226.25,259.00 226.80,258.83 227.39,256.58 C227.41,257.60 228.84,256.67 230.01,254.48 C231.62,251.47 230.51,249.89 226.47,249.45 L 223.80 249.15 L 225.82 251.31 L 226.02 251.53 C227.30,252.88 228.00,254.56 227.66,255.45 C227.63,255.51 227.61,255.58 227.59,255.64 C227.81,254.06 227.31,252.89 225.82,251.31 C220.16,245.29 214.57,243.65 207.04,245.86 C208.16,245.42 208.12,245.00 207.54,244.07 C207.18,243.48 205.78,243.00 204.44,243.00 C202.62,243.00 202.00,243.54 202.00,245.11 ZM 296.07 256.42 C296.91,255.41 297.02,254.38 296.32,253.18 C297.32,254.33 297.97,254.42 298.86,253.69 C299.77,252.94 299.85,252.45 299.11,252.20 C298.50,252.00 298.00,251.29 298.00,250.63 C298.00,249.97 297.10,249.36 296.00,249.27 C293.72,249.10 293.54,249.43 295.32,251.88 C294.67,251.19 293.79,250.44 292.69,249.61 C287.62,245.83 274.79,246.70 272.51,250.26 C272.15,248.63 270.56,249.21 270.23,251.58 C269.95,253.60 275.61,258.00 278.49,258.00 C279.32,258.00 280.00,258.45 280.00,259.00 C280.00,259.55 281.01,259.97 282.25,259.93 C284.40,259.86 284.41,259.82 282.50,259.00 C281.14,258.42 280.98,258.11 282.00,258.04 C282.73,257.99 281.41,257.16 279.01,256.12 C285.36,258.08 294.11,258.78 296.07,256.42 ZM 347.12 267.81 C345.58,269.36 345.58,269.93 346.65,271.70 C347.38,272.91 347.73,274.54 347.43,275.32 C347.17,276.00 347.48,276.78 348.13,277.18 C346.69,276.56 344.20,276.11 340.00,275.52 C338.38,275.30 337.12,275.12 336.12,274.94 C336.85,274.81 336.78,274.44 336.09,273.61 C335.45,272.84 335.06,271.66 335.21,270.98 C335.34,270.44 335.09,269.84 334.62,269.49 C335.72,269.30 337.38,269.17 339.90,269.00 C343.61,268.75 345.84,268.40 347.12,267.81 ZM 169.21 243.52 C169.37,245.98 169.77,248.00 170.11,248.00 C170.98,248.00 176.26,227.92 175.57,227.24 C175.26,226.92 174.99,227.30 174.98,228.08 C174.97,229.25 174.80,229.24 174.00,228.00 C173.27,226.86 173.03,227.30 173.02,229.81 C173.00,232.17 172.64,232.91 171.75,232.40 C171.06,232.00 170.82,232.03 171.21,232.47 C171.60,232.90 171.25,234.56 170.42,236.15 C169.56,237.82 169.05,240.95 169.21,243.52 ZM 296.58 188.79 C296.34,190.94 296.54,190.88 299.89,187.79 C301.85,185.98 303.70,184.20 303.99,183.83 C304.28,183.46 306.54,182.00 309.01,180.58 C312.99,178.30 313.19,178.04 310.75,178.22 C309.24,178.34 308.00,178.81 308.00,179.28 C308.00,179.74 307.48,179.80 306.85,179.40 C306.18,178.99 305.96,179.13 306.33,179.72 C306.68,180.30 304.79,181.65 301.98,182.82 C299.24,183.96 296.96,185.25 296.92,185.69 C296.87,186.14 296.72,187.53 296.58,188.79 ZM 266.84 198.28 C268.85,198.49 271.62,198.69 273.00,198.73 C275.13,198.79 275.02,198.64 272.25,197.75 C270.46,197.18 269.00,196.33 269.00,195.86 C269.00,195.38 267.44,195.00 265.53,195.00 C260.76,195.00 261.86,197.75 266.84,198.28 ZM 202.26 254.60 C202.62,255.19 203.95,255.56 205.21,255.42 C206.47,255.28 207.87,255.13 208.33,255.08 C209.41,254.97 203.49,250.00 202.27,250.00 C201.23,250.00 201.22,252.93 202.26,254.60 ZM 317.00 273.23 C319.39,273.20 321.00,273.03 321.00,272.76 C321.00,272.34 320.44,271.97 319.75,271.93 C319.06,271.89 319.40,271.43 320.50,270.91 C321.85,270.27 319.72,270.13 313.94,270.47 C308.04,270.82 305.01,270.61 304.19,269.79 C304.12,269.72 304.04,269.64 303.98,269.56 C305.40,270.57 308.79,270.69 315.19,270.30 C324.68,269.72 325.19,269.79 324.83,271.59 C324.53,273.16 323.83,273.43 317.00,273.23 ZM 274.00 247.98 C274.00,249.24 279.87,246.79 280.44,245.29 C281.15,243.45 277.48,243.66 275.57,245.57 C274.71,246.44 274.00,247.52 274.00,247.98 ZM 219.00 198.26 C219.00,198.47 220.27,198.47 221.83,198.24 C224.67,197.82 225.92,195.00 223.26,195.00 C221.99,195.00 219.00,197.28 219.00,198.26 ZM 222.00 276.11 C222.00,277.15 222.45,278.00 223.00,278.00 C223.55,278.00 224.00,277.36 224.00,276.58 C224.00,275.80 224.56,274.97 225.25,274.72 C225.94,274.47 226.23,273.98 225.89,273.61 C224.78,272.40 222.00,274.19 222.00,276.11 ZM 321.00 179.50 C322.38,180.29 323.95,180.91 324.50,180.89 C325.05,180.86 324.96,180.62 324.31,180.36 C323.65,180.09 323.34,179.29 323.61,178.57 C323.95,177.70 323.35,177.35 321.81,177.51 C318.34,177.87 318.30,177.96 321.00,179.50 ZM 323.67 249.33 C324.77,250.44 325.00,250.12 325.00,247.50 C325.00,246.12 324.55,245.00 324.00,245.00 C322.88,245.00 322.63,248.30 323.67,249.33 ZM 156.00 273.93 C156.00,274.33 157.41,274.45 159.14,274.19 C161.55,273.84 161.91,273.53 160.72,272.86 C159.12,271.97 156.00,272.67 156.00,273.93 ZM 199.72 212.50 C204.00,212.50 205.64,209.66 202.03,208.51 C201.78,208.43 201.49,208.30 201.17,208.13 C201.65,208.20 202.57,208.33 203.25,208.42 C204.62,208.61 204.41,210.80 202.84,212.69 C202.08,213.60 201.25,213.62 199.32,212.74 C199.15,212.66 198.99,212.59 198.83,212.52 C199.11,212.51 199.41,212.50 199.72,212.50 ZM 331.53 238.71 C332.27,240.42 332.33,240.42 332.74,238.67 C333.21,236.70 332.39,235.27 331.38,236.29 C331.03,236.63 331.10,237.72 331.53,238.71 ZM 246.75 272.38 C246.25,273.12 245.79,274.31 245.56,275.56 C245.40,276.38 245.13,277.12 244.78,277.77 C244.85,277.37 244.81,276.95 244.65,276.52 C244.11,275.11 245.19,273.40 246.75,272.38 ZM 180.14 241.42 C179.87,242.78 179.74,243.96 179.82,244.29 C179.94,244.73 179.55,245.97 178.97,247.06 C178.96,247.07 178.95,247.09 178.95,247.10 C179.31,244.83 179.64,243.23 180.14,241.42 ZM 263.65 279.40 C263.03,279.87 262.30,280.00 261.26,280.00 C259.46,280.00 257.74,279.43 256.37,278.47 C257.96,279.39 260.05,280.01 261.69,279.82 C262.55,279.72 263.20,279.57 263.65,279.40 ZM 171.99 283.90 C171.48,282.56 171.03,281.62 170.56,281.01 C171.67,281.46 171.97,282.35 171.98,283.83 C171.98,283.85 171.99,283.87 171.99,283.90 ZM 273.04 276.41 C272.96,276.59 272.90,276.77 272.84,276.93 C273.37,274.86 273.46,273.06 272.87,272.34 C272.72,272.16 272.57,272.00 272.42,271.86 C273.56,272.68 273.84,274.28 273.04,276.41 ZM 298.42 212.58 L 301.13 212.80 C303.39,212.99 305.61,214.02 307.05,215.55 C307.10,215.60 307.14,215.65 307.19,215.70 C305.60,214.20 303.04,213.01 301.00,212.82 ZM 242.37 280.22 C240.77,281.15 238.75,281.40 236.75,280.89 C237.21,280.97 237.69,281.00 238.21,281.00 C239.83,281.00 241.26,280.71 242.37,280.22 ZM 188.51 179.99 C188.61,180.00 188.70,180.00 188.80,180.00 C189.89,180.00 191.81,180.87 194.30,182.45 C192.20,181.21 190.31,180.42 188.51,179.99 ZM 253.98 275.66 C253.83,275.33 253.71,274.99 253.63,274.64 C253.39,273.69 252.76,272.88 251.95,272.30 C253.23,273.09 253.94,274.25 253.98,275.66 ZM 347.50 263.00 C347.53,263.06 347.57,263.11 347.60,263.16 C346.17,262.39 343.61,262.00 339.94,262.00 C343.76,262.00 347.16,262.45 347.50,263.00 ZM 206.50 191.87 C208.71,193.80 210.29,195.17 211.45,196.10 C209.79,194.86 207.79,193.06 204.90,190.51 C204.58,190.23 204.27,189.96 203.96,189.69 C204.79,190.39 205.64,191.11 206.50,191.87 ZM 303.14 268.10 C302.95,267.34 303.11,266.56 303.61,265.75 C303.55,265.87 303.50,266.00 303.46,266.14 C303.21,266.90 303.10,267.55 303.14,268.10 ZM 312.85 187.09 C314.15,186.34 315.24,186.00 316.21,186.00 C315.46,186.00 314.19,186.45 312.85,187.09 ZM 302.69 276.83 C302.45,276.27 302.54,275.79 302.95,275.12 C302.67,275.76 302.57,276.32 302.69,276.83 ZM 317.79 187.59 C317.26,186.63 316.66,186.00 316.21,186.00 C316.79,186.00 317.32,186.57 317.79,187.59 ZM 169.98 270.83 C169.94,270.29 169.78,269.66 169.51,268.91 C169.82,269.41 169.95,270.04 169.98,270.83 ZM 183.71 188.04 C183.40,188.40 183.11,188.84 182.86,189.32 C182.92,189.18 182.97,189.05 183.04,188.93 C183.21,188.61 183.44,188.31 183.71,188.04 ZM 301.86 208.23 C301.70,208.38 301.54,208.54 301.38,208.70 L 297.51 212.49 L 297.50 212.49 L 301.32 208.75 C301.50,208.57 301.68,208.40 301.86,208.23 ZM 186.96 187.22 C186.52,187.10 186.09,187.03 185.71,187.01 C185.76,187.00 185.81,187.00 185.86,187.00 C186.16,187.00 186.53,187.08 186.96,187.22 ZM 167.75 259.68 C168.14,259.57 168.46,259.42 168.72,259.24 C168.49,259.43 168.19,259.57 167.75,259.68 ZM 193.25 215.90 C193.35,215.77 193.46,215.64 193.57,215.50 C193.74,215.29 193.91,215.09 194.07,214.91 C194.03,214.95 194.00,215.00 193.96,215.04 C193.70,215.36 193.47,215.64 193.25,215.90 ZM 179.00 282.03 C179.00,282.29 179.02,282.52 179.05,282.72 C178.99,282.45 178.97,282.20 179.00,281.98 C179.00,282.00 179.00,282.02 179.00,282.03 ZM 348.53 277.37 C348.73,277.46 348.90,277.58 349.06,277.71 C348.90,277.59 348.73,277.48 348.53,277.37 ZM 177.06 270.19 C177.03,270.30 177.01,270.43 177.00,270.55 C177.00,270.53 177.00,270.50 177.00,270.48 C177.00,270.37 177.02,270.28 177.06,270.19 ZM 180.76 180.51 C180.63,180.57 180.51,180.63 180.39,180.70 C180.51,180.63 180.63,180.56 180.75,180.51 Z" fill="rgb(254,254,254)"/>
<path d="M 308.50 315.15 C318.36,310.47 325.84,300.44 329.09,287.58 C330.28,282.84 330.32,282.80 331.69,285.13 L 333.08 287.50 L 332.43 285.10 C331.87,283.05 331.98,282.90 333.21,284.05 C334.72,285.46 334.42,290.38 332.89,289.43 C332.40,289.13 332.00,289.56 332.00,290.39 C332.00,291.22 331.39,292.26 330.64,292.70 C329.40,293.42 325.93,299.23 325.98,300.49 C326.11,303.69 325.38,305.10 321.74,308.73 C313.91,316.54 311.56,318.00 306.86,318.00 L 302.50 318.00 L 308.50 315.15 ZM 200.64 313.50 C199.91,311.60 201.07,311.58 203.56,313.47 C205.46,314.91 205.46,314.94 203.36,314.97 C202.18,314.99 200.95,314.33 200.64,313.50 ZM 190.58 310.46 C189.98,309.88 188.51,309.42 187.30,309.43 C184.58,309.45 178.40,304.65 177.70,301.98 C176.97,299.18 179.17,299.49 182.08,302.60 C184.59,305.29 189.79,308.28 195.95,310.56 L 199.50 311.88 L 195.58 311.69 C193.42,311.59 191.17,311.03 190.58,310.46 ZM 235.00 311.00 C235.00,310.45 235.65,310.00 236.44,310.00 C237.23,310.00 238.16,310.45 238.50,311.00 C238.84,311.55 238.19,312.00 237.06,312.00 C235.93,312.00 235.00,311.55 235.00,311.00 ZM 289.33 310.50 C289.33,309.67 289.93,309.00 290.67,309.00 C291.40,309.00 292.00,309.67 292.00,310.50 C292.00,311.33 291.40,312.00 290.67,312.00 C289.93,312.00 289.33,311.33 289.33,310.50 ZM 221.78 310.11 C218.86,309.63 218.25,309.19 218.96,308.06 C219.69,306.87 220.34,306.83 222.50,307.82 C223.96,308.48 225.56,308.77 226.06,308.46 C226.57,308.15 226.71,308.59 226.38,309.45 C226.05,310.30 225.72,310.94 225.64,310.86 C225.56,310.78 223.82,310.44 221.78,310.11 ZM 302.16 308.41 C302.39,307.23 304.09,306.13 306.93,305.30 C309.37,304.60 311.50,304.17 311.68,304.35 C311.86,304.53 309.71,305.93 306.91,307.45 C302.44,309.89 301.85,310.00 302.16,308.41 ZM 196.50 302.82 C193.53,301.17 193.43,300.97 194.97,300.02 C195.94,299.42 196.96,299.81 198.19,301.22 C200.89,304.33 200.26,304.92 196.50,302.82 ZM 188.10 298.12 C186.23,296.57 184.99,294.82 185.35,294.24 C185.72,293.65 185.45,292.94 184.76,292.66 C184.05,292.38 183.98,292.12 184.59,292.08 C185.64,292.00 193.00,299.34 193.00,300.46 C193.00,301.61 191.37,300.84 188.10,298.12 ZM 315.42 294.10 C315.46,291.95 315.84,290.40 316.25,290.66 C316.66,290.91 317.00,290.42 317.00,289.56 C317.00,288.67 317.86,288.00 319.00,288.00 C320.10,288.00 321.00,288.24 321.00,288.53 C321.00,290.26 317.92,296.00 316.99,296.00 C316.38,296.00 316.16,296.45 316.50,297.00 C316.84,297.55 316.72,298.00 316.23,298.00 C315.74,298.00 315.38,296.24 315.42,294.10 ZM 173.36 294.51 C173.05,293.68 172.32,293.30 171.74,293.66 C171.16,294.02 170.98,293.83 171.35,293.24 C172.13,291.99 168.70,283.55 166.98,282.49 C166.08,281.93 166.12,281.54 167.14,280.89 C169.88,279.16 170.85,280.14 172.96,286.75 C174.15,290.46 175.35,294.06 175.64,294.75 C175.93,295.44 175.67,296.00 175.05,296.00 C174.44,296.00 173.68,295.33 173.36,294.51 ZM 338.57 284.88 C339.09,284.05 338.82,283.85 337.74,284.27 C336.86,284.61 335.70,284.34 335.14,283.67 C334.37,282.74 335.62,282.59 340.60,283.01 C344.15,283.31 347.72,283.18 348.53,282.73 C350.47,281.64 350.42,278.10 348.44,277.34 C347.59,277.01 347.13,276.10 347.43,275.32 C347.73,274.54 347.38,272.91 346.65,271.70 C345.47,269.75 345.59,269.25 347.65,267.30 C349.90,265.17 350.01,265.16 350.99,266.98 C351.74,268.38 351.59,269.26 350.43,270.43 C349.56,271.29 349.26,272.00 349.74,272.00 C350.23,272.00 350.60,275.04 350.57,278.75 L 350.50 285.50 L 344.16 285.80 C339.37,286.03 338.00,285.80 338.57,284.88 ZM 148.53 282.03 C147.58,280.98 147.11,279.63 147.49,279.02 C147.86,278.41 147.63,277.26 146.96,276.46 C146.01,275.31 146.05,274.64 147.13,273.31 C148.29,271.87 148.29,271.74 147.12,272.45 C146.17,273.02 145.88,272.85 146.21,271.89 C146.46,271.13 147.31,270.49 148.09,270.47 C148.86,270.46 150.06,270.10 150.74,269.67 C151.57,269.15 151.79,269.38 151.42,270.36 C151.07,271.27 151.64,272.07 152.93,272.48 C155.55,273.31 155.59,274.61 153.00,275.29 C150.55,275.93 150.33,279.53 152.66,280.83 C154.16,281.67 154.12,281.87 152.29,282.85 C150.65,283.72 149.91,283.56 148.53,282.03 ZM 158.21 282.46 C157.10,281.20 157.52,281.02 161.21,281.14 C163.57,281.21 164.49,281.47 163.25,281.71 C162.01,281.94 161.00,282.56 161.00,283.07 C161.00,284.43 159.69,284.14 158.21,282.46 ZM 179.00 282.03 C179.00,280.73 179.49,280.25 180.44,280.61 C181.23,280.92 181.63,281.80 181.33,282.58 C180.53,284.67 179.00,284.31 179.00,282.03 ZM 319.21 282.46 C318.12,281.22 318.31,281.00 320.46,281.00 C322.05,281.00 323.00,281.56 323.00,282.50 C323.00,284.40 320.90,284.38 319.21,282.46 ZM 232.00 278.00 C230.46,276.35 228.70,275.00 228.10,275.00 C227.49,275.00 227.00,274.55 227.00,274.01 C227.00,272.56 230.78,273.37 233.03,275.30 C236.27,278.07 239.28,278.32 241.75,276.02 C243.64,274.25 243.79,273.64 242.75,271.97 C242.07,270.89 241.27,270.00 240.97,270.00 C240.67,270.00 240.35,269.05 240.27,267.89 C240.12,265.94 240.24,265.90 241.88,267.39 C244.17,269.46 251.35,269.50 253.40,267.46 C254.79,266.07 254.99,266.14 255.40,268.21 C255.65,269.47 255.77,271.85 255.68,273.50 C255.51,276.35 255.73,276.53 260.00,277.00 C265.00,277.56 266.06,279.32 261.69,279.82 C258.64,280.17 254.01,277.71 253.98,275.73 C253.96,273.80 252.68,272.33 250.42,271.62 C247.63,270.75 243.71,274.08 244.65,276.52 C245.56,278.90 242.54,281.00 238.21,281.00 C235.71,281.00 234.05,280.20 232.00,278.00 ZM 302.23 279.16 C301.53,278.72 300.54,276.89 300.03,275.10 C299.22,272.29 299.30,272.00 300.55,273.04 C301.71,274.00 302.00,273.94 302.00,272.73 C302.00,271.90 301.36,270.97 300.58,270.67 C298.66,269.93 299.68,266.33 302.35,264.47 C305.12,262.52 306.55,262.59 304.57,264.57 C302.70,266.45 302.57,268.17 304.19,269.79 C305.01,270.61 308.04,270.82 313.94,270.47 C319.72,270.13 321.85,270.27 320.50,270.91 C319.40,271.43 319.06,271.89 319.75,271.93 C320.44,271.97 321.00,272.34 321.00,272.76 C321.00,273.17 317.32,273.35 312.82,273.14 C305.84,272.83 304.45,273.03 303.33,274.57 C302.23,276.07 302.28,276.65 303.66,278.18 C305.35,280.04 304.51,280.61 302.23,279.16 ZM 273.04 276.41 C274.42,272.76 272.59,270.63 268.73,271.40 C266.70,271.81 265.96,271.62 266.25,270.76 C266.91,268.76 271.60,268.98 273.89,271.11 C276.54,273.58 276.60,276.61 274.01,277.99 C272.18,278.98 272.10,278.86 273.04,276.41 ZM 222.00 276.11 C222.00,274.19 224.78,272.40 225.89,273.61 C226.23,273.98 225.94,274.47 225.25,274.72 C224.56,274.97 224.00,275.80 224.00,276.58 C224.00,277.36 223.55,278.00 223.00,278.00 C222.45,278.00 222.00,277.15 222.00,276.11 ZM 156.00 273.93 C156.00,272.67 159.12,271.97 160.72,272.86 C161.91,273.53 161.55,273.84 159.14,274.19 C157.41,274.45 156.00,274.33 156.00,273.93 ZM 332.36 273.50 C331.56,271.40 332.75,268.74 334.25,269.29 C334.94,269.54 335.37,270.30 335.21,270.98 C335.06,271.66 335.45,272.84 336.09,273.61 C337.02,274.72 336.82,275.00 335.09,275.00 C333.91,275.00 332.68,274.33 332.36,273.50 ZM 165.64 271.50 C165.95,270.67 166.64,270.00 167.17,270.00 C167.69,270.00 167.86,269.58 167.54,269.07 C167.23,268.56 167.38,267.88 167.88,267.57 C168.38,267.26 169.06,267.72 169.40,268.59 C170.58,271.67 170.02,273.00 167.53,273.00 C165.75,273.00 165.22,272.58 165.64,271.50 ZM 177.67 272.33 C176.45,271.12 176.98,269.00 178.50,269.00 C179.33,269.00 180.00,269.89 180.00,271.00 C180.00,272.99 178.93,273.60 177.67,272.33 ZM 187.29 270.57 C189.24,268.62 198.00,268.37 198.00,270.26 C198.00,271.11 195.98,271.63 191.86,271.83 C186.28,272.11 185.86,271.99 187.29,270.57 ZM 149.62 264.87 C148.14,263.14 148.05,262.58 149.15,261.90 C150.06,261.33 150.62,261.61 150.86,262.78 C151.05,263.72 151.67,265.06 152.23,265.75 C154.00,267.93 151.53,267.10 149.62,264.87 ZM 347.50 263.00 C347.16,262.45 343.76,262.00 339.94,262.00 C334.56,262.00 333.00,261.68 333.00,260.56 C333.00,259.55 333.68,259.30 335.25,259.71 C336.49,260.04 339.08,260.41 341.00,260.54 C342.92,260.67 345.24,260.83 346.14,260.89 C347.05,260.95 348.05,261.67 348.36,262.50 C349.01,264.19 348.44,264.52 347.50,263.00 ZM 194.25 262.28 C191.15,261.89 189.62,260.09 192.25,259.92 C192.94,259.87 194.51,259.72 195.75,259.58 C197.36,259.41 198.00,259.86 198.00,261.17 C198.00,262.18 197.89,262.93 197.75,262.84 C197.61,262.75 196.04,262.50 194.25,262.28 ZM 161.64 258.96 C162.21,258.39 164.33,257.66 166.36,257.33 C169.49,256.82 169.95,256.98 169.41,258.37 C168.97,259.51 167.56,260.00 164.69,260.00 C161.87,260.00 160.92,259.68 161.64,258.96 ZM 280.00 259.00 C280.00,258.45 279.32,258.00 278.49,258.00 C275.61,258.00 269.95,253.60 270.23,251.58 C270.61,248.84 272.68,248.50 272.58,251.19 C272.52,253.01 273.56,253.88 278.00,255.69 C281.02,256.93 282.83,257.98 282.00,258.04 C280.98,258.11 281.14,258.42 282.50,259.00 C284.41,259.82 284.40,259.86 282.25,259.93 C281.01,259.97 280.00,259.55 280.00,259.00 ZM 227.66 255.45 C228.00,254.56 227.30,252.88 226.02,251.53 L 223.80 249.15 L 226.47 249.45 C230.51,249.89 231.62,251.47 230.01,254.48 C228.55,257.21 226.69,257.98 227.66,255.45 ZM 202.26 254.60 C201.22,252.93 201.23,250.00 202.27,250.00 C203.49,250.00 209.41,254.97 208.33,255.08 C207.87,255.13 206.47,255.28 205.21,255.42 C203.95,255.56 202.62,255.19 202.26,254.60 ZM 295.75 252.46 C293.52,249.48 293.55,249.09 296.00,249.27 C297.10,249.36 298.00,249.97 298.00,250.63 C298.00,251.29 298.50,252.00 299.11,252.20 C299.85,252.45 299.77,252.94 298.86,253.69 C297.81,254.55 297.10,254.27 295.75,252.46 ZM 178.51 250.02 C178.18,249.48 178.38,248.15 178.97,247.06 C179.55,245.97 179.94,244.73 179.82,244.29 C179.71,243.86 179.98,241.98 180.42,240.12 C180.96,237.82 181.48,237.15 182.02,238.03 C182.46,238.75 182.45,240.32 181.99,241.54 C181.52,242.75 181.28,244.92 181.44,246.37 C181.63,248.11 181.24,249.00 180.30,249.00 C179.52,249.00 179.16,249.45 179.50,250.00 C179.84,250.55 179.89,251.00 179.62,251.00 C179.34,251.00 178.85,250.56 178.51,250.02 ZM 323.67 249.33 C322.63,248.30 322.88,245.00 324.00,245.00 C324.55,245.00 325.00,246.12 325.00,247.50 C325.00,250.12 324.77,250.44 323.67,249.33 ZM 274.00 247.98 C274.00,247.52 274.71,246.44 275.57,245.57 C277.48,243.66 281.15,243.45 280.44,245.29 C279.87,246.79 274.00,249.24 274.00,247.98 ZM 169.21 243.52 C169.05,240.95 169.56,237.82 170.42,236.15 C171.25,234.56 171.60,232.90 171.21,232.47 C170.82,232.03 171.06,232.00 171.75,232.40 C172.64,232.91 173.00,232.17 173.02,229.81 C173.03,227.30 173.27,226.86 174.00,228.00 C174.80,229.24 174.97,229.25 174.98,228.08 C174.99,227.30 175.26,226.92 175.57,227.24 C176.26,227.92 170.98,248.00 170.11,248.00 C169.77,248.00 169.37,245.98 169.21,243.52 ZM 202.00 245.11 C202.00,243.54 202.62,243.00 204.44,243.00 C205.78,243.00 207.18,243.48 207.54,244.07 C208.38,245.43 208.09,245.69 204.75,246.53 C202.40,247.12 202.00,246.91 202.00,245.11 ZM 331.53 238.71 C331.10,237.72 331.03,236.63 331.38,236.29 C332.39,235.27 333.21,236.70 332.74,238.67 C332.33,240.42 332.27,240.42 331.53,238.71 ZM 184.21 221.41 C184.13,218.38 184.46,216.17 184.96,216.48 C185.45,216.78 186.42,215.49 187.10,213.61 C188.38,210.07 191.19,209.57 190.28,213.05 C190.00,214.11 190.08,215.76 190.45,216.74 C191.04,218.25 191.53,218.02 193.96,215.04 C196.53,211.90 197.02,211.69 199.32,212.74 C201.25,213.62 202.08,213.60 202.84,212.69 C204.41,210.80 204.62,208.61 203.25,208.42 C202.56,208.33 201.62,208.19 201.15,208.12 C200.68,208.06 198.98,206.74 197.38,205.21 C195.24,203.17 194.49,201.56 194.58,199.21 C194.66,197.44 194.30,196.00 193.80,196.00 C193.29,196.00 193.17,195.53 193.53,194.96 C193.88,194.38 193.63,193.26 192.96,192.46 C192.30,191.65 192.20,191.00 192.74,191.00 C194.01,191.00 200.91,196.45 203.50,199.50 C206.67,203.24 212.94,205.99 218.49,206.09 C223.09,206.16 223.26,206.25 220.50,207.09 C218.85,207.59 216.15,207.76 214.50,207.46 C206.10,205.94 204.00,205.80 204.00,206.75 C204.00,207.30 204.65,208.29 205.44,208.95 C206.23,209.61 206.63,210.81 206.32,211.62 C206.01,212.42 205.53,212.86 205.26,212.59 C204.98,212.32 204.13,212.73 203.35,213.51 C202.58,214.28 201.33,214.68 200.57,214.39 C199.82,214.10 198.92,214.32 198.57,214.89 C198.22,215.45 197.34,215.68 196.62,215.41 C195.89,215.13 194.54,216.05 193.62,217.45 C192.71,218.85 191.12,220.00 190.10,220.00 C188.98,220.00 187.75,221.19 186.99,223.02 C185.04,227.74 184.36,227.35 184.21,221.41 ZM 307.81 220.24 C306.72,220.01 306.33,219.30 306.73,218.27 C307.17,217.12 306.97,216.90 306.02,217.49 C305.13,218.04 304.93,217.92 305.40,217.15 C305.80,216.52 305.53,215.93 304.81,215.85 C299.87,215.27 297.64,214.26 296.17,211.91 C295.45,210.74 295.34,210.09 295.93,210.45 C296.53,210.83 297.00,210.37 297.00,209.42 C297.00,208.48 297.79,207.08 298.75,206.31 C300.35,205.01 300.32,204.98 298.38,205.91 C297.22,206.47 295.91,206.61 295.47,206.21 C295.04,205.82 294.96,205.99 295.31,206.60 C295.65,207.20 294.82,208.29 293.47,209.02 C292.11,209.74 291.00,210.71 291.00,211.17 C291.00,212.69 284.24,212.08 283.64,210.50 C283.19,209.33 283.89,209.00 286.78,209.00 C290.14,209.01 291.24,208.23 298.11,200.93 C303.95,194.74 305.87,193.23 306.35,194.47 C306.79,195.62 306.47,196.00 305.23,195.79 C304.11,195.60 303.55,196.11 303.64,197.24 C303.71,198.20 303.33,198.70 302.78,198.36 C302.16,197.98 302.04,198.65 302.46,200.12 C302.89,201.66 302.81,202.04 302.23,201.20 C301.49,200.14 301.12,200.15 300.21,201.25 C299.30,202.35 299.84,202.57 303.12,202.43 C305.33,202.33 307.64,201.76 308.24,201.16 C309.74,199.66 311.93,202.65 311.97,206.25 C312.01,209.43 310.48,209.94 309.71,207.00 C308.90,203.90 305.55,204.60 301.32,208.75 L 297.50 212.49 L 301.00 212.82 C303.05,213.01 305.62,214.21 307.21,215.72 C309.52,217.91 310.17,218.11 311.51,216.99 C312.38,216.27 312.87,215.10 312.60,214.39 C312.29,213.58 312.64,213.31 313.55,213.66 C315.30,214.33 315.38,216.95 313.72,219.00 C312.47,220.54 310.79,220.89 307.81,220.24 ZM 317.83 214.26 C317.33,210.87 317.77,209.00 319.08,209.00 C320.24,209.00 320.26,214.04 319.11,215.85 C318.50,216.82 318.13,216.36 317.83,214.26 ZM 311.00 211.00 C311.00,210.45 311.45,210.00 312.00,210.00 C312.55,210.00 313.00,210.45 313.00,211.00 C313.00,211.55 312.55,212.00 312.00,212.00 C311.45,212.00 311.00,211.55 311.00,211.00 ZM 182.67 206.33 C182.30,205.97 182.00,204.63 182.00,203.36 C182.00,201.73 182.43,201.23 183.50,201.64 C184.32,201.95 185.00,203.29 185.00,204.61 C185.00,206.94 184.01,207.68 182.67,206.33 ZM 258.50 206.00 C257.02,205.36 257.79,205.13 261.50,205.09 C265.08,205.05 266.07,205.31 265.00,206.00 C263.20,207.16 261.20,207.16 258.50,206.00 ZM 219.00 198.26 C219.00,197.28 221.99,195.00 223.26,195.00 C225.92,195.00 224.67,197.82 221.83,198.24 C220.27,198.47 219.00,198.47 219.00,198.26 ZM 266.84 198.28 C261.86,197.75 260.76,195.00 265.53,195.00 C267.44,195.00 269.00,195.38 269.00,195.86 C269.00,196.33 270.46,197.18 272.25,197.75 C275.02,198.64 275.13,198.79 273.00,198.73 C271.62,198.69 268.85,198.49 266.84,198.28 ZM 206.50 191.87 C198.24,184.64 191.32,180.00 188.80,180.00 C187.81,180.00 187.00,179.58 187.00,179.07 C187.00,177.82 191.52,178.36 193.28,179.82 C194.05,180.46 194.98,180.69 195.34,180.32 C195.70,179.96 196.00,180.44 196.00,181.39 C196.00,182.34 196.45,182.84 197.00,182.50 C197.55,182.16 198.00,182.39 198.00,183.00 C198.00,183.61 198.45,183.84 199.00,183.50 C199.55,183.16 200.00,183.39 200.00,184.00 C200.00,184.61 200.34,184.92 200.75,184.68 C202.16,183.84 206.00,185.94 206.00,187.54 C206.00,189.36 208.32,192.00 209.93,192.00 C210.52,192.00 211.00,192.45 211.00,193.00 C211.00,193.55 211.85,194.00 212.89,194.00 C214.79,194.00 216.38,196.28 215.26,197.40 C214.20,198.46 213.61,198.09 206.50,191.87 ZM 182.00 192.66 C182.00,190.02 183.86,187.00 185.49,187.00 C187.75,187.00 191.99,189.21 191.43,190.11 C191.16,190.56 189.76,190.48 188.33,189.93 C186.89,189.39 185.64,189.07 185.53,189.22 C185.42,189.37 184.59,190.61 183.67,191.97 C182.32,193.97 182.00,194.10 182.00,192.66 ZM 315.58 190.94 C313.93,189.28 313.43,189.20 312.08,190.37 C309.88,192.27 306.60,192.18 308.19,190.27 C309.61,188.56 314.42,186.00 316.21,186.00 C316.92,186.00 318.00,187.57 318.61,189.50 C319.87,193.54 318.70,194.09 315.58,190.94 ZM 296.58 188.79 C296.72,187.53 296.87,186.14 296.92,185.69 C296.96,185.25 299.24,183.96 301.98,182.82 C304.79,181.65 306.68,180.30 306.33,179.72 C305.96,179.13 306.18,178.99 306.85,179.40 C307.48,179.80 308.00,179.74 308.00,179.28 C308.00,178.81 309.24,178.34 310.75,178.22 C313.19,178.04 312.99,178.30 309.01,180.58 C306.54,182.00 304.28,183.46 303.99,183.83 C303.70,184.20 301.85,185.98 299.89,187.79 C296.54,190.88 296.34,190.94 296.58,188.79 ZM 173.00 187.33 C173.00,186.96 173.74,185.84 174.64,184.85 C175.54,183.86 176.32,182.07 176.39,180.88 C176.52,178.29 179.10,176.44 181.36,177.31 C183.63,178.18 183.41,179.35 180.75,180.51 C179.51,181.06 177.82,182.95 177.00,184.73 C175.70,187.52 173.00,189.28 173.00,187.33 ZM 321.00 179.50 C318.30,177.96 318.34,177.87 321.81,177.51 C323.35,177.35 323.95,177.70 323.61,178.57 C323.34,179.29 323.65,180.09 324.31,180.36 C324.96,180.62 325.05,180.86 324.50,180.89 C323.95,180.91 322.38,180.29 321.00,179.50 Z" fill="rgb(249,249,249)"/>
</g>
</svg>